# xmcd CD database file
#
# Track frame offsets:
#	150
#	16050
#	28350
#	48180
#	65310
#	88215
#	111585
#	125760
#	145860
#	160935
#	175110
#
# Disc length: 2544 seconds
#
# Revision: 0
# Processed by: cddbd v1.5.1PL2 Copyright (c) Steve Scherf et al.
# Submitted via: CDex 1.51
#
DISCID=9709ee0b
DTITLE=ミッシェル・ポルナレフ - グレーテスト・ヒット
DYEAR=1900
DGENRE=Pop
TTITLE0=愛の休日
TTITLE1=愛のコレクション
TTITLE2=ロミオとジュリエット
TTITLE3=真夜中の出来事
TTITLE4=ラース家の舞踏会
TTITLE5=忘れじのグローリア
TTITLE6=シェリーに口づけ
TTITLE7=愛の願い
TTITLE8=ノンノン人形
TTITLE9=バラ色の心
TTITLE10=渚の思い出
EXTD=
EXTT0=
EXTT1=
EXTT2=
EXTT3=
EXTT4=
EXTT5=
EXTT6=
EXTT7=
EXTT8=
EXTT9=
EXTT10=
PLAYORDER=
